<?xml version="1.0" standalone="no"?><!DOCTYPE svg PUBLIC "-//W3C//DTD SVG 1.1//EN" "http://www.w3.org/Graphics/SVG/1.1/DTD/svg11.dtd"><svg t="1681906913602" class="icon" viewBox="0 0 1024 1024" version="1.1" xmlns="http://www.w3.org/2000/svg" p-id="16544" xmlns:xlink="http://www.w3.org/1999/xlink" width="200" height="200"><path d="M498.4 647c-16.6 0-30-13.4-30-30V340.7c0-16.6 13.4-30 30-30s30 13.4 30 30V617c0 16.5-13.4 30-30 30z" fill="#ffffff" p-id="16545"></path><path d="M497.4 940.2c-57.2 0-112.7-11.2-165-33.3C282 885.5 236.7 855 197.8 816s-69.5-84.2-90.8-134.7c-22.1-52.3-33.3-107.8-33.3-165s11.2-112.7 33.3-165c21.3-50.5 51.9-95.8 90.8-134.7s84.2-69.5 134.7-90.8c52.3-22.1 107.8-33.3 165-33.3 46.8 0 92.8 7.6 136.7 22.5 15.7 5.3 24.1 22.4 18.7 38.1s-22.4 24.1-38.1 18.7c-37.7-12.8-77.2-19.3-117.4-19.3-200.6 0-363.8 163.2-363.8 363.8 0 200.6 163.2 363.8 363.8 363.8 200.6 0 363.8-163.2 363.8-363.8 0-36-5.2-71.5-15.6-105.6-4.8-15.9 4.2-32.6 20-37.4 15.9-4.8 32.6 4.2 37.4 20 12 39.8 18.1 81.1 18.1 123 0 57.2-11.2 112.7-33.3 165-21.3 50.5-51.9 95.8-90.8 134.7-38.9 38.9-84.2 69.5-134.7 90.8-52.2 22.2-107.7 33.4-164.9 33.4z" fill="#ffffff" p-id="16546"></path><path d="M498.4 710.5c-7.2 0-14.3-2.5-20.1-7.7l-127-114.3c-12.3-11.1-13.3-30.1-2.2-42.4 11.1-12.3 30.1-13.3 42.4-2.2l127 114.3c12.3 11.1 13.3 30.1 2.2 42.4-5.9 6.5-14.1 9.9-22.3 9.9z" fill="#ffffff" p-id="16547"></path><path d="M498.5 710.5c-8.2 0-16.4-3.3-22.3-9.9-11.1-12.3-10.1-31.3 2.2-42.4l127-114.3c12.3-11.1 31.3-10.1 42.4 2.2 11.1 12.3 10.1 31.3-2.2 42.4l-127 114.3c-5.8 5.1-13 7.7-20.1 7.7z" fill="#ffffff" p-id="16548"></path></svg>