<?xml version="1.0" standalone="no"?><!DOCTYPE svg PUBLIC "-//W3C//DTD SVG 1.1//EN" "http://www.w3.org/Graphics/SVG/1.1/DTD/svg11.dtd"><svg t="1682840315261" class="icon" viewBox="0 0 1024 1024" version="1.1" xmlns="http://www.w3.org/2000/svg" p-id="3707" xmlns:xlink="http://www.w3.org/1999/xlink" width="200" height="200"><path d="M742.4 944H281.6c-49.4 0-89.6-43.1-89.6-96V368h64v480c0 17.3 11.7 32 25.6 32h460.8c13.9 0 25.6-14.7 25.6-32V368h64v480c0 52.9-40.2 96-89.6 96z" p-id="3708" fill="#ffffff"></path><path d="M384 368h64v416h-64zM592 368h64v416h-64zM64 224h896v64H64z" p-id="3709" fill="#ffffff"></path><path d="M768 288H256V160c0-52.9 43.1-96 96-96h320c52.9 0 96 43.1 96 96v128z m-448-64h384v-64c0-17.6-14.4-32-32-32H352c-17.6 0-32 14.4-32 32v64z" p-id="3710" fill="#ffffff"></path></svg>