<?xml version="1.0" standalone="no"?><!DOCTYPE svg PUBLIC "-//W3C//DTD SVG 1.1//EN" "http://www.w3.org/Graphics/SVG/1.1/DTD/svg11.dtd"><svg t="1681906550983" class="icon" viewBox="0 0 1032 1024" version="1.1" xmlns="http://www.w3.org/2000/svg" p-id="4302" xmlns:xlink="http://www.w3.org/1999/xlink" width="201.5625" height="200"><path d="M609.82784 317.74208a126.99648 126.99648 0 0 0-91.04384 38.7328c-48.53248-50.33472-128.67072-51.79904-179.01056-3.2768-1.72544 1.65888-3.4048 3.36896-5.03808 5.13024-49.01888 52.09088-45.73696 137.10848 4.3776 188.31872l146.84672 151.1168c16.96256 17.8944 45.22496 18.6368 63.11936 1.664 0.55808-0.5376 1.12128-1.1008 1.65888-1.664l147.5072-151.1168c49.78176-51.21024 53.28384-136.22784 4.48512-188.31872a126.79168 126.79168 0 0 0-92.9024-40.58624z" fill="#ffffff" p-id="4303"></path><path d="M516.66944 65.24928c-246.67136 0-446.53056 199.8592-446.53056 446.52544 0 246.67136 199.8592 446.976 446.98112 446.976s446.98112-199.84896 446.98112-446.976c0-247.1168-200.76032-446.52544-447.43168-446.52544z m0 841.43616c-218.19904 0-394.91072-176.71168-394.91072-394.91072 0-218.19392 176.71168-394.9056 394.91072-394.9056s394.91072 176.71168 394.91072 394.9056c0 218.19904-176.71168 394.91072-394.91072 394.91072z" fill="#ffffff" p-id="4304"></path><path d="M435.072 364.12416a85.75488 85.75488 0 0 1 62.03392 26.51136l21.67808 22.08256 21.5808-22.08256c32.81408-34.28352 87.20384-35.47136 121.49248-2.65728 1.30048 1.23904 2.56 2.52928 3.77856 3.86048 32.83968 38.08256 31.232 94.92992-3.71712 131.09248L526.7968 661.5552a10.72128 10.72128 0 0 1-16.25088 0l-135.0144-138.624c-34.93888-36.16256-36.5568-93.00992-3.72224-131.09248a86.23104 86.23104 0 0 1 63.26272-27.71456" fill="#ffffff" p-id="4305"></path></svg>