<?xml version="1.0" standalone="no"?><!DOCTYPE svg PUBLIC "-//W3C//DTD SVG 1.1//EN" "http://www.w3.org/Graphics/SVG/1.1/DTD/svg11.dtd"><svg t="1681538310324" class="icon" viewBox="0 0 1024 1024" version="1.1" xmlns="http://www.w3.org/2000/svg" p-id="5448" xmlns:xlink="http://www.w3.org/1999/xlink" width="200" height="200"><path d="M928 170.666667H506.666667a10.713333 10.713333 0 0 1-8.533334-4.266667L453.333333 106.666667a53.58 53.58 0 0 0-42.666666-21.333334H272a53.58 53.58 0 0 0-42.666667 21.333334l-44.8 59.733333A10.713333 10.713333 0 0 1 176 170.666667H96a53.393333 53.393333 0 0 0-53.333333 53.333333v661.333333a53.393333 53.393333 0 0 0 53.333333 53.333334h832a53.393333 53.393333 0 0 0 53.333333-53.333334V224a53.393333 53.393333 0 0 0-53.333333-53.333333zM176 213.333333a53.58 53.58 0 0 0 42.666667-21.333333l44.8-59.733333A10.713333 10.713333 0 0 1 272 128h138.666667a10.713333 10.713333 0 0 1 8.533333 4.266667L464 192a53.58 53.58 0 0 0 42.666667 21.333333h5.333333L366.333333 465.633333a168.726667 168.726667 0 0 0-21.666666 55.206667L167.126667 213.333333z m336 213.333334c70.58 0 128 57.42 128 128s-57.42 128-128 128-128-57.42-128-128 57.42-128 128-128zM85.333333 224a10.666667 10.666667 0 0 1 10.666667-10.666667h21.86l243.833333 422.333334A171.48 171.48 0 0 0 391.333333 675.333333q3.8 3.8 7.8 7.333334H85.333333z m10.666667 672a10.666667 10.666667 0 0 1-10.666667-10.666667v-160h426.666667a170.973333 170.973333 0 0 0 54.346667-8.8L462.733333 896z m416 0l145.666667-252.3a168.726667 168.726667 0 0 0 21.666666-55.206667L856.873333 896z m426.666667-10.666667a10.666667 10.666667 0 0 1-10.666667 10.666667h-21.86L662.306667 473.666667A171.48 171.48 0 0 0 632.666667 434q-3.8-3.8-7.8-7.333333H938.666667z m0-501.333333h-85.333334v-64a21.333333 21.333333 0 0 0-42.666666 0v64H512a170.973333 170.973333 0 0 0-54.346667 8.8L561.266667 213.333333H928a10.666667 10.666667 0 0 1 10.666667 10.666667z" fill="#ffffff" p-id="5449"></path></svg>