<?xml version="1.0" standalone="no"?><!DOCTYPE svg PUBLIC "-//W3C//DTD SVG 1.1//EN" "http://www.w3.org/Graphics/SVG/1.1/DTD/svg11.dtd"><svg t="1681721760049" class="icon" viewBox="0 0 1024 1024" version="1.1" xmlns="http://www.w3.org/2000/svg" p-id="2695" xmlns:xlink="http://www.w3.org/1999/xlink" width="200" height="200"><path d="M618.08 116.16c-34.36-11.58-69.09-7.47-94.48 11.2-25.77 18.67-40.33 50.04-40.33 86.27v140.79l256.93 85.52c12.7 4.48 25.77 6.35 38.09 6.35 20.91 0 40.33-5.98 56.39-17.55 25.77-18.67 40.33-50.04 40.33-86.27V298.4c0-53.4-41.08-110.54-91.87-127.34l-165.06-54.9z" fill="#A4D4FF" p-id="2696"></path><path d="M538.91 736.07c0 97.84-79.54 177.39-177.39 177.39s-177.39-79.54-177.39-177.39 79.54-177.39 177.39-177.39c47.05 0 89.63 18.67 121.37 48.55v-253.2l56.02 18.67v363.37z" fill="#2B8CF7" p-id="2697"></path></svg>