<?xml version="1.0" standalone="no"?><!DOCTYPE svg PUBLIC "-//W3C//DTD SVG 1.1//EN" "http://www.w3.org/Graphics/SVG/1.1/DTD/svg11.dtd"><svg t="1681180766999" class="icon" viewBox="0 0 1024 1024" version="1.1" xmlns="http://www.w3.org/2000/svg" p-id="3155" xmlns:xlink="http://www.w3.org/1999/xlink" width="200" height="200"><path d="M701.78095 343.629034c-10.378519-21.239297-37.17735-28.335921-56.709772-15.025913-19.534229 13.31362-22.731232 40.847581-6.766086 58.279374 49.241068 76.142853 49.241068 174.092156 0 250.236816-15.965146 17.431793-12.768143 44.96756 6.766086 58.279374 19.532423 13.311814 46.331254 6.211578 56.709772-15.022301M888.624993 858.76011c161.822529-202.863375 161.822529-490.660458 0-693.518414-12.538753-18.529973-38.181606-22.503649-55.743447-8.637326-17.560035 13.86271-19.648021 39.725921-4.535409 56.225706 137.182126 175.856829 137.182126 422.483018 0 598.34346-15.112612 16.499786-13.024626 42.362997 4.535409 56.2239 17.563647 13.86271 43.204693 9.889034 55.743447-8.637326zM239.651485 324.076743c78.274189-62.115778 156.544765-124.23878 234.818953-186.356364 23.488036-18.643764 58.118621-1.912783 58.118621 28.074019v692.41301c0 29.988609-34.630585 46.712365-58.118621 28.072213L239.651485 699.921451H51.201716c-19.794324 0-35.838943-16.046425-35.838943-35.84075V359.919299c0-19.792518 16.044619-35.84075 35.838943-35.84075l188.449769-0.001806z m-147.488396 76.800316v222.245882h174.26194l189.367327 150.284419V250.590834l-189.367327 150.288031H92.163089zM695.538667 689.537513c75.32825-106.375301 75.32825-248.701532 0-355.075026" fill="#AED0ED" p-id="3156"></path></svg>